<?xml version="1.0" standalone="no"?>
<!DOCTYPE svg PUBLIC "-//W3C//DTD SVG 20010904//EN"
 "http://www.w3.org/TR/2001/REC-SVG-20010904/DTD/svg10.dtd">
<svg version="1.0" xmlns="http://www.w3.org/2000/svg"
 width="700.000000pt" height="700.000000pt" viewBox="0 0 700.000000 700.000000"
 preserveAspectRatio="xMidYMid meet">
<metadata>
Created by potrace 1.11, written by Peter Selinger 2001-2013
</metadata>
<g transform="translate(0.000000,700.000000) scale(0.100000,-0.100000)"
fill="#000000" stroke="none">
<path d="M3308 6704 c-2 -1 -39 -5 -83 -8 -44 -4 -91 -8 -105 -10 -14 -3 -47
-7 -75 -11 -27 -3 -84 -12 -125 -20 -41 -8 -86 -17 -100 -19 -171 -33 -439
-121 -630 -208 -85 -39 -235 -114 -264 -131 -427 -257 -676 -476 -992 -870
-26 -32 -160 -232 -186 -277 -108 -188 -155 -283 -233 -475 -52 -128 -126
-371 -150 -490 -18 -92 -36 -195 -40 -230 -3 -22 -7 -51 -10 -65 -25 -141 -26
-638 -1 -767 3 -12 7 -47 11 -79 7 -63 38 -227 61 -319 240 -960 913 -1758
1819 -2160 155 -68 353 -138 485 -170 155 -38 238 -54 353 -70 27 -4 59 -8 70
-11 128 -24 577 -24 767 1 14 1 49 6 79 10 30 4 63 9 75 11 12 2 37 7 56 10
91 16 257 59 375 95 386 122 740 313 1075 583 103 83 342 321 433 432 377 461
624 1020 702 1589 3 22 7 49 10 60 25 122 25 694 0 785 -3 8 -7 37 -9 64 -3
26 -7 56 -10 65 -3 9 -7 34 -11 56 -10 73 -15 93 -45 212 -121 470 -344 906
-655 1279 -49 59 -289 302 -355 360 -36 31 -195 154 -272 210 -211 153 -549
322 -828 412 -164 53 -365 103 -475 118 -27 3 -57 8 -65 9 -9 2 -43 6 -75 10
-33 3 -80 9 -105 12 -44 5 -467 12 -472 7z m393 -588 c96 -7 141 -12 219 -26
30 -5 71 -12 90 -15 101 -17 316 -79 450 -131 223 -87 526 -267 717 -426 605
-504 948 -1240 946 -2029 -1 -124 -4 -173 -19 -319 -9 -83 -35 -214 -70 -350
-159 -609 -566 -1172 -1094 -1514 -25 -16 -58 -38 -75 -50 -16 -11 -93 -52
-170 -91 -268 -136 -556 -228 -815 -261 -25 -3 -51 -7 -57 -9 -22 -7 -233 -19
-333 -18 -749 3 -1441 314 -1950 878 -137 151 -296 385 -388 570 -120 243
-213 535 -247 785 -3 25 -8 56 -10 70 -50 341 -1 813 122 1170 107 313 290
630 504 875 296 337 704 613 1115 754 101 34 300 88 359 96 22 4 47 8 55 10 8
2 38 7 65 11 28 3 59 8 70 10 10 2 62 6 115 10 52 3 96 7 97 8 4 4 225 -2 304
-8z"/>
<path d="M3412 5526 c-53 -17 -128 -75 -154 -117 -50 -82 -49 -52 -46 -1051
l3 -933 23 -50 c18 -39 118 -144 490 -517 517 -517 520 -519 639 -519 70 0 90
4 139 29 112 57 181 198 152 312 -5 19 -10 40 -11 45 -10 45 -108 152 -457
499 l-400 400 -1 830 c0 457 -2 842 -5 855 -15 80 -80 163 -159 201 -58 28
-154 35 -213 16z"/>
</g>
</svg>
